<svg width="24" height="25" viewBox="0 0 24 25" fill="none" xmlns="http://www.w3.org/2000/svg">
<path d="M3.60615 6.04602L0.0057373 2.50535L1.57669 0.959991L5.17599 4.50175H22.0978C22.2709 4.50174 22.4415 4.54152 22.5962 4.61792C22.7508 4.69431 22.8852 4.80521 22.9885 4.94176C23.0918 5.07831 23.1613 5.23673 23.1913 5.40438C23.2213 5.57202 23.2111 5.74425 23.1614 5.90732L20.4969 14.6443C20.4284 14.8694 20.2879 15.0667 20.0963 15.207C19.9047 15.3473 19.6722 15.423 19.4333 15.423H5.82658V17.6072H18.0389V19.7915H4.71636C4.42192 19.7915 4.13953 19.6764 3.93133 19.4716C3.72312 19.2668 3.60615 18.989 3.60615 18.6994V6.04602ZM5.82658 6.686V13.2387H18.6073L20.6057 6.686H5.82658ZM5.27147 24.16C4.8298 24.16 4.40622 23.9874 4.09391 23.6802C3.78161 23.373 3.60615 22.9563 3.60615 22.5218C3.60615 22.0873 3.78161 21.6707 4.09391 21.3634C4.40622 21.0562 4.8298 20.8836 5.27147 20.8836C5.71314 20.8836 6.13672 21.0562 6.44903 21.3634C6.76133 21.6707 6.93679 22.0873 6.93679 22.5218C6.93679 22.9563 6.76133 23.373 6.44903 23.6802C6.13672 23.9874 5.71314 24.16 5.27147 24.16ZM18.594 24.16C18.1523 24.16 17.7288 23.9874 17.4165 23.6802C17.1041 23.373 16.9287 22.9563 16.9287 22.5218C16.9287 22.0873 17.1041 21.6707 17.4165 21.3634C17.7288 21.0562 18.1523 20.8836 18.594 20.8836C19.0357 20.8836 19.4593 21.0562 19.7716 21.3634C20.0839 21.6707 20.2593 22.0873 20.2593 22.5218C20.2593 22.9563 20.0839 23.373 19.7716 23.6802C19.4593 23.9874 19.0357 24.16 18.594 24.16Z" fill="#838383"/>
</svg>
